<svg xmlns="http://www.w3.org/2000/svg" viewBox="0 0 32 32">
  <defs>
    <linearGradient id="g" x1="0" y1="0" x2="1" y2="1">
      <stop offset="0%" stop-color="#93c5fd"/>
      <stop offset="100%" stop-color="#c4b5fd"/>
    </linearGradient>
  </defs>
  <!-- Double ring — boosted for small/dark contexts -->
  <circle cx="16" cy="16" r="15" fill="none" stroke="url(#g)" stroke-width="1.4" opacity="0.6"/>
  <circle cx="16" cy="16" r="13" fill="none" stroke="url(#g)" stroke-width="0.8" opacity="0.4"/>
  <!-- Cardinal points (N/S/E/W) -->
  <polygon points="16,1.5 17.5,13 16,16 14.5,13" fill="url(#g)"/>
  <polygon points="16,30.5 14.5,19 16,16 17.5,19" fill="url(#g)"/>
  <polygon points="30.5,16 19,14.5 16,16 19,17.5" fill="url(#g)"/>
  <polygon points="1.5,16 13,17.5 16,16 13,14.5" fill="url(#g)"/>
  <!-- Ordinal points (NE/SE/SW/NW) -->
  <polygon points="26,6 18,14 16,16 14,14" fill="url(#g)" opacity="0.55"/>
  <polygon points="6,26 14,18 16,16 18,18" fill="url(#g)" opacity="0.55"/>
  <polygon points="26,26 18,18 16,16 18,14" fill="url(#g)" opacity="0.55"/>
  <polygon points="6,6 14,14 16,16 14,18" fill="url(#g)" opacity="0.55"/>
  <!-- Center -->
  <circle cx="16" cy="16" r="2" fill="url(#g)"/>
  <circle cx="16" cy="16" r="3.5" fill="none" stroke="url(#g)" stroke-width="0.9"/>
</svg>
